<svg xmlns="http://www.w3.org/2000/svg" width="21" height="24" viewBox="0 0 21 24">
  <defs>
    <style>
      .cls-1 {
        fill: #949494;
      }
    </style>
  </defs>
  <path id="Monacomics" class="cls-1" d="M12.75,6.375a.75.75,0,1,0-.75-.75A.752.752,0,0,0,12.75,6.375ZM21,16.8V1.2A1.1,1.1,0,0,0,19.8,0H4.5A4.42,4.42,0,0,0,0,4.5v15A4.42,4.42,0,0,0,4.5,24H19.8A1.183,1.183,0,0,0,21,22.8v-.75a1.3,1.3,0,0,0-.45-.9,13.267,13.267,0,0,1,0-3.45A.907.907,0,0,0,21,16.8ZM11.25,2.625c2.072,0,3.75,1.345,3.75,3a2.844,2.844,0,0,1-1.5,2.386v.614a.752.752,0,0,1-.75.75h-3A.752.752,0,0,1,9,8.625V8.011A2.844,2.844,0,0,1,7.5,5.625c0-1.655,1.678-3,3.75-3Zm-5.4,7.842.3-.689a.374.374,0,0,1,.492-.2l4.608,1.973,4.613-1.973a.374.374,0,0,1,.492.2l.3.689a.374.374,0,0,1-.2.492l-3.3,1.416,3.3,1.411a.374.374,0,0,1,.2.492l-.3.689a.374.374,0,0,1-.492.2L11.25,13.191,6.642,15.169a.374.374,0,0,1-.492-.2l-.3-.689a.374.374,0,0,1,.2-.492l3.3-1.411-3.3-1.42a.374.374,0,0,1-.2-.492ZM17.85,21H4.5A1.417,1.417,0,0,1,3,19.5,1.5,1.5,0,0,1,4.5,18H17.85ZM9.75,6.375A.75.75,0,1,0,9,5.625.752.752,0,0,0,9.75,6.375Z"/>
</svg>
